<svg xmlns="http://www.w3.org/2000/svg" version="1.1" xmlns:xlink="http://www.w3.org/1999/xlink" width="512" height="512" x="0" y="0" viewBox="0 0 511.453 511.453" style="enable-background:new 0 0 512 512" xml:space="preserve" class=""><g><path fill="#F0B000" d="M297.996 300.588h-87l-23.958 27.401 18.66 154.543 20.518 21.426h58.02l24.278-10.43 16.8-142.573zM371.346 300.588l-29.287 29.896-29.664 155.876 20.431 17.599h29.4c16.79 0 31.66-10.82 36.85-26.79l42.89-132.14 13.79-44.44h-84.41z" opacity="1" data-original="#a6e7f0" class=""></path><g fill="#6BD9E7"><path d="M328.825 401.301c8.104 8.104 18.88 12.568 30.342 12.568 23.666 0 42.92-19.254 42.92-42.92v-70.36h-30.74l-29.287 29.896-13.437 70.605c.069.068.132.141.202.211zM205.474 480.673l.224 1.859 20.518 21.426h58.02l24.278-10.43 1.515-12.855zM397.383 480.673h-83.906l-1.082 5.687 20.431 17.599h29.4c15.532 0 29.414-9.263 35.517-23.292-.12 0-.239.006-.36.006z" fill="#F0B000" opacity="1" data-original="#6bd9e7" class=""></path></g><path fill="#E70010" d="m371.346 300.588-17.88 92.56-20.64 110.81h-48.59l11.07-158.93 2.69-44.44z" opacity="1" data-original="#f9f7f8" class=""></path><path fill="#F0B000" d="m161.201 311.721-20.605-11.133h-85.9l56.68 176.58c5.19 15.97 20.06 26.79 36.85 26.79h29.41l17.536-45.349z" opacity="1" data-original="#a6e7f0" class=""></path><path fill="#F0B000" d="M183.383 480.673c-16.79 0-31.66-10.82-36.85-26.79L97.328 300.588H54.696l56.68 176.58c5.19 15.97 20.06 26.79 36.85 26.79h29.41l9.004-23.285z" opacity="1" data-original="#6bd9e7" class=""></path><path fill="#E70010" d="m215.146 345.028 11.07 158.93h-48.58l-29.62-158.93-7.42-44.44h70.4z" opacity="1" data-original="#f9f7f8" class=""></path><path fill="#E70010" d="m285.858 480.673-1.622 23.285h48.59l4.338-23.285zM183.383 480.673c-3.562 0-7.035-.492-10.35-1.411l4.603 24.696h48.58l-1.622-23.285z" opacity="1" data-original="#efedef" class=""></path><path fill="#F0B000" d="M443.919 265.986c16.305 5.23 28.11 20.51 28.11 38.552 0 22.36-18.126 40.486-40.486 40.486H79.91c-22.36 0-40.486-18.126-40.486-40.486 0-17.759 11.439-32.836 27.347-38.294l121.788-22.58h215.628z" opacity="1" data-original="#fdd79b" class=""></path><path fill="#E70010" d="m297.996 300.588-1.921 31.734a108.363 108.363 0 0 0 20.171-10.814v49.441c0 11.462 4.467 22.241 12.578 30.352 5.848 5.848 13.091 9.788 20.975 11.535l3.667-19.688 17.88-92.56z" opacity="1" data-original="#efedef" class=""></path><path fill="#F0B000" d="m443.919 265.986-39.734-22.322H188.558l-99.083 18.37-22.705 4.21c-15.908 5.458-27.347 20.535-27.347 38.294 0 22.36 18.126 40.486 40.486 40.486h56.669c-9.309 0-17.867-7.566-24.673-16.51-8.813-11.58-.3-28.199 14.244-27.728l20.759.672a68.014 68.014 0 0 1 21.477 4.214 67.935 67.935 0 0 1 19.042 10.808c19.151 15.411 43.229 23.898 67.798 23.898 21.751 0 43.117-6.651 61.02-18.871v23.516h85.84V300.38c0-.093.074-.17.167-.173l11.739-.38c14.811-.479 29.088-6.146 40.224-15.977a63.744 63.744 0 0 0 6.807-7.055 40.503 40.503 0 0 0-17.103-10.809z" opacity="1" data-original="#fccd7f" class=""></path><path fill="#E70010" d="M437.846 200.688a43.828 43.828 0 0 1 17.38 42.13c-1.62 10.4-6.84 19.48-14.27 26.06a43.788 43.788 0 0 1-27.61 10.96l-11.74.38c-10.88.35-19.52 9.27-19.52 20.16v70.57c0 12.66-10.26 22.92-22.92 22.92-6.32 0-12.06-2.57-16.2-6.71-4.15-4.15-6.72-9.88-6.72-16.21v-58.61c0-3.37-1.1-6.64-3.14-9.32a15.4 15.4 0 0 0-12.28-6.09c-3.32 0-6.66 1.07-9.47 3.27-.29.23-.58.47-.87.7-16.13 12.98-35.7 19.48-55.26 19.48s-39.13-6.5-55.26-19.48a88.182 88.182 0 0 0-52.41-19.43l-50.45-1.63c-21.04-.68-38.63-16.22-41.88-37.02a43.823 43.823 0 0 1 17.38-42.13l35.25-25.85a43.887 43.887 0 0 0 15.25-20.29c5.7-15.59 14.59-29.59 25.92-41.23a116.337 116.337 0 0 1 40.51-27.04l19.7-7.82 40.32-10.55 51.66 10.55 19.7 7.82a116.5 116.5 0 0 1 66.43 68.27c1.48 4.06 3.56 7.85 6.12 11.27 2.58 3.42 5.64 6.46 9.13 9.02z" opacity="1" data-original="#ffbee7" class=""></path><path fill="#E70010" d="M381.437 373.158c-6.32 0-12.06-2.57-16.2-6.71-4.15-4.15-6.72-9.88-6.72-16.21v-58.255c0-3.206-.861-6.388-2.675-9.032a15.407 15.407 0 0 0-12.745-6.733c-3.32 0-6.66 1.07-9.47 3.27-.29.23-.58.47-.87.7a88.264 88.264 0 0 1-6.515 4.769c-15.956 10.59-37.059 9.831-52.02-2.124l-.234-.187a88.182 88.182 0 0 0-52.41-19.43l-50.45-1.63c-21.04-.68-38.63-16.22-41.88-37.02a43.823 43.823 0 0 1 17.38-42.13l35.25-25.85a43.887 43.887 0 0 0 15.25-20.29l.138-.375c3.615-9.773 15.234-13.76 24.16-8.384a65.297 65.297 0 0 0 33.8 9.379c31.279 0 57.511-21.949 64.149-51.249l-18.159-7.208-51.66-10.55-40.32 10.55-19.7 7.82a116.337 116.337 0 0 0-40.51 27.04 116.385 116.385 0 0 0-25.92 41.23 43.887 43.887 0 0 1-15.25 20.29l-35.25 25.85a43.823 43.823 0 0 0-17.38 42.13c3.25 20.8 20.84 36.34 41.88 37.02l50.45 1.63a88.182 88.182 0 0 1 52.41 19.43c16.13 12.98 35.7 19.48 55.26 19.48s39.13-6.5 55.26-19.48c.26-.207.521-.42.781-.629l.089-.071c2.81-2.2 6.15-3.27 9.47-3.27 4.894 0 9.721 2.326 12.745 6.733 1.814 2.643 2.675 5.826 2.675 9.032v58.255c0 6.33 2.57 12.06 6.72 16.21 4.14 4.14 9.88 6.71 16.2 6.71 11.919 0 21.707-9.103 22.813-20.732-.181.003-.36.021-.542.021z" opacity="1" data-original="#feaee1" class=""></path><circle cx="255.226" cy="71.128" r="45.788" fill="#E70010" opacity="1" data-original="#ee6161" class=""></circle><path d="M98.204 189.42c1.54 0 3.093-.473 4.429-1.453l9.663-7.085a51.172 51.172 0 0 0 17.851-23.757c10.662-29.143 33.319-52.423 62.161-63.872l12.485-4.956c7.163 20.982 27.057 36.119 50.433 36.119s43.271-15.137 50.433-36.119l12.485 4.956a109.34 109.34 0 0 1 16.505 8.241 7.497 7.497 0 0 0 10.308-2.502 7.502 7.502 0 0 0-2.502-10.308 124.458 124.458 0 0 0-18.776-9.373L308.46 73.27c.028-.711.054-1.424.054-2.142 0-21.651-12.987-40.314-31.573-48.645a49.666 49.666 0 0 1 6.221-7.585l2.096-2.096a7.5 7.5 0 0 0 0-10.606 7.5 7.5 0 0 0-10.606 0l-2.096 2.096a64.483 64.483 0 0 0-10.608 13.987 53.428 53.428 0 0 0-6.721-.439c-29.383 0-53.288 23.905-53.288 53.288 0 .718.026 1.43.054 2.142l-15.219 6.041c-32.811 13.024-58.584 39.507-70.714 72.659a36.22 36.22 0 0 1-12.634 16.815l-9.663 7.086a7.5 7.5 0 0 0 4.441 13.549zM255.226 32.84c.254 0 .504.014.757.019a64.541 64.541 0 0 0-2.238 16.845v13.39a7.5 7.5 0 0 0 15 0v-13.39c0-4.671.658-9.238 1.908-13.608 13.448 5.946 22.861 19.406 22.861 35.031 0 21.112-17.176 38.288-38.288 38.288s-38.288-17.176-38.288-38.288c.001-21.111 17.177-38.287 38.288-38.287z" fill="#000000" opacity="1" data-original="#000000" class=""></path><path d="M479.53 304.538c0-17.448-9.305-33.098-23.938-41.533a51.122 51.122 0 0 0 7.049-19.029c2.982-19.037-4.818-37.941-20.357-49.336l-35.256-25.855a36.205 36.205 0 0 1-12.634-16.814 123.36 123.36 0 0 0-25.452-41.628 7.5 7.5 0 0 0-11.009 10.189 108.454 108.454 0 0 1 22.374 36.594 51.17 51.17 0 0 0 17.851 23.756l35.255 25.854c10.998 8.066 16.519 21.446 14.409 34.919-2.697 17.221-17.299 30.128-34.721 30.69l-11.733.378c-15.016.485-26.779 12.634-26.779 27.657v70.566c0 8.502-6.917 15.418-15.418 15.418s-15.419-6.917-15.419-15.418v-58.609a23.03 23.03 0 0 0-4.675-13.866c-3.745-4.921-9.185-8.065-15.318-8.853-6.123-.789-12.168.875-17.024 4.68-.32.251-.638.503-.953.757-14.275 11.49-32.229 17.818-50.555 17.818s-36.279-6.328-50.555-17.818c-16.065-12.932-36.264-20.419-56.877-21.084l-50.442-1.627c-17.421-.562-32.024-13.469-34.721-30.69-2.095-13.375 3.36-26.703 14.235-34.78a7.5 7.5 0 0 0-8.944-12.042c-15.364 11.413-23.07 30.243-20.11 49.144a51.1 51.1 0 0 0 7.334 19.472c-14.198 8.553-23.222 24.035-23.222 41.09 0 20.091 12.416 37.327 29.973 44.465l42.35 130.484a46.123 46.123 0 0 0 43.982 31.966h213.996a46.123 46.123 0 0 0 43.982-31.966l16.355-50.393a7.5 7.5 0 0 0-14.267-4.631l-16.355 50.393a31.162 31.162 0 0 1-29.714 21.597h-20.376l17.721-95.099c16.589-.215 30.019-13.769 30.019-30.408v-18.422h41.955c.034 0 .067-.002.1-.003l-13.464 41.484a7.5 7.5 0 1 0 14.267 4.63l15.962-49.181c18.161-6.84 31.119-24.39 31.119-44.916zm-432.606 0c0-12.621 7.197-23.977 18.273-29.498 8.62 7.367 19.67 11.91 31.673 12.298l50.442 1.627c17.379.561 34.41 6.874 47.955 17.777 16.931 13.628 38.225 21.133 59.96 21.133s43.029-7.505 59.961-21.134c.266-.214.533-.426.8-.635a7.809 7.809 0 0 1 5.858-1.608 7.857 7.857 0 0 1 5.292 3.059 7.94 7.94 0 0 1 1.612 4.783v25.187H79.91c-18.189-.003-32.986-14.8-32.986-32.989zm186.289 191.915-10.027-143.929h64.082l-10.027 143.929zm-49.35 0-26.819-143.929h51.106l10.027 143.929zm-65.349-21.596L78.801 352.496c.37.008.737.028 1.108.028h61.876l26.819 143.929h-20.377a31.16 31.16 0 0 1-29.713-21.596zm173.764 21.596 10.027-143.929h26.446v18.422c0 11.645 6.581 21.777 16.216 26.888l-18.377 98.619zm139.265-158.929h-41.955V300.38c0-6.88 5.387-12.443 12.262-12.665l11.733-.378c12.174-.393 23.37-5.057 32.043-12.611a32.851 32.851 0 0 1 18.903 29.811c.001 18.19-14.797 32.987-32.986 32.987z" fill="#000000" opacity="1" data-original="#000000" class=""></path><path d="M188.659 168.592c-3.169-2.669-7.9-2.262-10.568.906s-2.263 7.9.906 10.568l9.46 7.966a7.469 7.469 0 0 0 4.827 1.763 7.5 7.5 0 0 0 4.835-13.237zM248.71 164.641l-5.674 9.958a7.5 7.5 0 0 0 13.033 7.425l5.674-9.958a7.5 7.5 0 0 0-13.033-7.425zM321.749 154.942a7.5 7.5 0 0 0 7.5-7.5v-8.465a7.5 7.5 0 0 0-15 0v8.465a7.5 7.5 0 0 0 7.5 7.5zM313.382 183.253l-8.962-9.958c-2.771-3.08-7.513-3.329-10.592-.558s-3.329 7.513-.558 10.592l8.962 9.958a7.48 7.48 0 0 0 5.577 2.483 7.499 7.499 0 0 0 5.573-12.517zM301.014 228.664h-14.119a7.5 7.5 0 0 0 0 15h14.119a7.5 7.5 0 0 0 0-15zM220.192 218.16l-5.536 7.469a7.5 7.5 0 0 0 12.05 8.933l5.536-7.469a7.5 7.5 0 0 0-12.05-8.933zM151.868 213.7a7.5 7.5 0 1 0-7.701 12.873l8.807 5.268a7.497 7.497 0 0 0 10.287-2.587 7.502 7.502 0 0 0-2.586-10.287zM351.965 221.216a7.498 7.498 0 0 0 10.198-2.914l4.979-8.962a7.499 7.499 0 0 0-2.914-10.198 7.498 7.498 0 0 0-10.198 2.914l-4.979 8.962a7.5 7.5 0 0 0 2.914 10.198z" fill="#000000" opacity="1" data-original="#000000" class=""></path></g></svg>