<svg xmlns="http://www.w3.org/2000/svg" version="1.1" xmlns:xlink="http://www.w3.org/1999/xlink" width="512" height="512" x="0" y="0" viewBox="0 0 502 502" style="enable-background:new 0 0 512 512" xml:space="preserve" class=""><g><path d="M163.592 492h174.816l4.182-24.05H159.41zM149.059 10h203.883v26.054H149.059zM352.941 255.509V36.054h-35.973l-66.189 219.455z" style="" fill="#F0B000" data-original="#e6e6e6" class="" opacity="1"></path><path d="M316.968 36.054H149.059v219.455h101.72z" style="" fill="#E70010" data-original="#0071bc" class="" opacity="1"></path><path d="M352.941 255.509H250.779L186.707 467.95h166.234z" style="" fill="#E70010" data-original="#0071bc" class="" opacity="1"></path><path d="M149.059 255.509V467.95h37.648l64.072-212.441z" style="" fill="#F0B000" data-original="#e6e6e6" class="" opacity="1"></path><path d="m221.331 240.022-42.609 42.609H322.75l-42.608-42.609z" style="" fill="#E70010" data-original="#c1272d" class="" opacity="1"></path><circle cx="250.736" cy="250.5" r="31.5" style="" fill="#F0B000" data-original="#fbb03b" class="" opacity="1"></circle><path d="M139.059 467.95c0 5.522 4.478 10 10 10h1.939l2.741 15.764a10.001 10.001 0 0 0 9.853 8.286h174.816c4.861 0 9.02-3.497 9.853-8.286l2.741-15.764h1.939c5.522 0 10-4.478 10-10V10c0-5.522-4.478-10-10-10H149.059c-5.522 0-10 4.478-10 10v457.95zm203.882-10H200.168l49.861-165.319h72.721a9.998 9.998 0 0 0 7.06-17.081l-10.069-10.04h23.2v192.44zm0-212.44h-43.257l-10.412-10.383a41.733 41.733 0 0 0-16.029-19.466l51.154-169.607h18.545V245.51zm-70.705 4.99c0 11.855-9.645 21.5-21.5 21.5s-21.5-9.645-21.5-21.5 9.645-21.5 21.5-21.5 21.5 9.645 21.5 21.5zm-60.79 13.331a41.355 41.355 0 0 0 4.21 8.8H202.72l8.726-8.8zm78.507.218 8.606 8.582h-12.742a41.347 41.347 0 0 0 4.136-8.582zm-35.641-54.885a41.857 41.857 0 0 0-3.575-.164c-17.159 0-31.92 10.469-38.23 25.354l-11.06 11.155H159.06V46.054h144.448l-49.196 163.11zM159.059 457.95V265.51h22.557l-9.995 10.08a10 10 0 0 0 7.1 17.041h50.417l-49.86 165.319h-20.219zm0-431.896V20h183.883v6.054H159.059zM330.701 477.95l-.704 4.05H172.003l-.704-4.05h159.402z" fill="#000000" opacity="1" data-original="#000000" class=""></path></g></svg>