<svg xmlns="http://www.w3.org/2000/svg" version="1.1" xmlns:xlink="http://www.w3.org/1999/xlink" width="512" height="512" x="0" y="0" viewBox="0 0 512.002 512.002" style="enable-background:new 0 0 512 512" xml:space="preserve" class=""><g><path d="M427.54 156.264c4.203-30.645 6.231-56.212 7.196-74.868a20.587 20.587 0 0 0-8.364-17.64c-12.215-8.991-14.874-11.915-21.813-11.985-5.821-.312-9.092 1.99-14.075 5.016A20.577 20.577 0 0 0 380.13 40.87c-13.202-7.466-16.191-10.052-23.089-9.292-6.649.442-9.14 3.338-20.365 12.15a20.624 20.624 0 0 0-7.83 17.641c.934 13.619 1.756 31.593 1.817 52.953-3.739-1.767-14.5-8.318-24.74 1.008l-1.627 1.481a809.478 809.478 0 0 0-3.041-24.007 20.582 20.582 0 0 0-11.592-15.707l-11.882-5.616c-1.613-18.946-3.567-35.079-5.388-47.868a20.582 20.582 0 0 0-11.592-15.707C247.088 1.425 243.917-.935 237.094.328c-6.593.925-8.832 3.962-19.422 13.607a20.626 20.626 0 0 0-6.52 18.167 746.662 746.662 0 0 1 2.219 17.005c-10.657-2.624-16.951 4.593-20.724 8.03l-5.9 5.373a20.624 20.624 0 0 0-6.52 18.166 742.34 742.34 0 0 1 1.975 14.978c-7.626-23.209-14.917-42.425-20.823-56.916a20.584 20.584 0 0 0-15.063-12.417c-14.966-2.97-18.557-4.456-24.838-1.586-6.17 2.501-7.621 6.017-15.53 17.921a20.624 20.624 0 0 0-1.906 19.207 767.221 767.221 0 0 1 9.775 25.274l-7.953-1.233-.072-.008c-6.781-1.031-13.819 1.499-18.639 8.727L80.21 106.09a20.625 20.625 0 0 0-1.098 19.269c7.275 15.891 16.893 38.497 26.874 66.467 11.537 32.332 25.021 76.129 35.487 127.543h249.446c20.116-63.879 30.886-121.294 36.621-163.105z" style="" fill="#F0B000" data-original="#ffcf5d" class="" opacity="1"></path><path d="M357.865 198.654a923.671 923.671 0 0 0 8.237-49.317c4.083-29.415 6.007-53.907 6.905-71.36a20.62 20.62 0 0 1 9.883-16.579l7.596-4.613a20.577 20.577 0 0 0-10.354-15.917l-12.334-6.975c-3.463-1.957-6.967-2.733-10.754-2.316 1.976 17.252 8.106 80.846.821 167.077zM289.666 77.099l-11.882-5.616c-1.613-18.946-3.567-35.079-5.388-47.868a20.582 20.582 0 0 0-11.592-15.707l-12.812-6.054c-3.597-1.7-7.148-2.217-10.896-1.524 2.048 10.806 7.118 40.035 10.317 82l9.033-8.228c2.822-2.57 5.891-4.073 9.511-4.581 4.031 21.271 19.767 113.908 9.89 234.606a967.62 967.62 0 0 0-1.307-33.386c-1.754-30.882-4.669-56.363-7.299-74.858a20.586 20.586 0 0 0-11.592-15.707l-8.537-4.035c-.06-1.168-.118-2.345-.182-3.488-1.636-29.653-4.447-54.059-6.914-71.36a20.637 20.637 0 0 1 3.384-14.549 793.802 793.802 0 0 0-1.929-14.555 20.582 20.582 0 0 0-11.592-15.707l-12.807-6.052-.003-.001a19.614 19.614 0 0 0-3.696-1.321 16.857 16.857 0 0 0-7.202-.204c2.777 14.656 11.114 63.182 12.801 131.422l3.46-3.152c2.82-2.568 5.98-4.086 9.598-4.594l4.091 146.79h60.07c2.383-41.1 1.776-77.225.216-105.487-1.636-29.652-4.447-54.058-6.914-71.36a20.619 20.619 0 0 1 6.52-18.166l1.983-1.806 6.3-5.739a809.478 809.478 0 0 0-3.041-24.007 20.566 20.566 0 0 0-11.589-15.706zM182.209 95.656c-7.626-23.209-14.917-42.425-20.823-56.916a20.584 20.584 0 0 0-15.063-12.417l-9.581-1.902-4.317-.856c-3.903-.774-7.474-.412-10.94 1.171 8.951 19.368 45.786 103.206 65.773 219.996-7.844-28.927-16.096-54.287-23.586-75.171-10.443-29.115-20.466-52.724-28.236-69.712a20.582 20.582 0 0 0-15.572-11.773l-6.04-.937-7.947-1.232-.012-.001c-3.932-.61-7.486-.099-10.882 1.63 10.167 19.773 53.523 108.223 78.003 231.836h8.273a921.542 921.542 0 0 0 6.293-73.57c1.645-36.254 1.008-68.218-.401-93.762-1.212-21.915-3.062-40.95-4.942-56.384zM358.035 208.895c-.163-2.87-.339-5.676-.521-8.451-1.776-27.09-4.392-49.631-6.779-66.407a20.58 20.58 0 0 0-11.592-15.707l-6.929-3.274-1.549-.732-4.333-2.047c-3.597-1.7-7.15-2.218-10.898-1.525 3.736 19.718 17.53 100.754 11.66 208.619h31.009c2.338-43.005 1.619-80.785-.068-110.476zM426.374 63.756l-11.414-8.401c-3.204-2.357-6.59-3.546-10.399-3.584-.137 23.805-2.943 135.012-46.061 267.6h32.433c20.11-63.883 30.872-121.294 36.607-163.108 4.203-30.645 6.231-56.212 7.196-74.868a20.578 20.578 0 0 0-8.362-17.639z" style="" fill="#BA8801" data-original="#ff983b" class="" opacity="1"></path><path d="M408.02 256.016H345.2c-7.348 0-13.533 5.258-15.005 12.456-5.764 28.165-30.683 49.351-60.552 49.351s-54.789-21.187-60.552-49.351c-1.473-7.199-7.658-12.456-15.005-12.456h-63.639c-9.513 0-16.767 8.515-15.256 17.908l35.173 218.506 1.059 6.576a15.45 15.45 0 0 0 15.255 12.996H371.79c7.586 0 14.05-5.507 15.255-12.996l36.23-225.082c1.512-9.393-5.741-17.908-15.255-17.908z" style="" fill="#E70010" data-original="#ff5368" class="" opacity="1"></path><path d="M408.02 256.016h-13.163l-36.231 225.082H148.541l1.824 11.331 1.059 6.576a15.45 15.45 0 0 0 15.255 12.996H371.791c7.586 0 14.05-5.507 15.255-12.996l36.23-225.082c1.511-9.392-5.742-17.907-15.256-17.907z" style="" fill="#AD000C" data-original="#d9435b" class="" opacity="1"></path></g></svg>