<svg xmlns="http://www.w3.org/2000/svg" version="1.1" xmlns:xlink="http://www.w3.org/1999/xlink" width="512" height="512" x="0" y="0" viewBox="0 0 512 512" style="enable-background:new 0 0 512 512" xml:space="preserve" class=""><g><path fill="#FF9200" d="m462.05 267-194.53 61.54c1.75-10.57 6.87-26.94 21.74-32.74l3.5-1.14.03-.01 68.94-22.49 50.85-16.6a1.907 1.907 0 0 0 .17.13 53.917 53.917 0 0 0 49.3 11.31zM213.41 345.65l-73.93 23.39a73.92 73.92 0 0 0-47.78 46.94l-15.11 44.98a11.6 11.6 0 0 1-11.71 7.99v-23.12a113.93 113.93 0 0 1 5.49-34.46l4.5-12.83a79.397 79.397 0 0 1 50.3-49.22L172.16 334c21.12-4.86 33.74 1.69 41.25 11.65z" opacity="1" data-original="#ff9200" class=""></path><path fill="#F9D129" d="m400.81 259.41-39.08 12.75-68.94 22.49-.03.01-3.5 1.14c-22.65 8.84-22.67 42.2-22.67 42.2v41.613a6.585 6.585 0 1 1-13.17 0V333s-1.42-10.53-7.82-10.53c-6.39 0-7.99 15.53-7.99 15.53v108.47a6.59 6.59 0 0 1-13.18 0v-63.49c-.36-13.59-5.02-59.86-52.27-48.98l-46.99 15.32a79.397 79.397 0 0 0-50.3 49.22l-4.5 12.83a113.93 113.93 0 0 0-5.49 34.46v39.07a6.59 6.59 0 1 1-13.18 0v-8.83c.06-15.7-8.48-36.18-8.48-36.18l-25.57-68.08a116.751 116.751 0 0 1 28.81-125.63l130.1-109.56a21.049 21.049 0 0 0 1.8-1.42 38.759 38.759 0 0 0 4.26-4.28 64.93 64.93 0 0 0 20.05 15.17 10.941 10.941 0 0 0 1.75.68c4.63 1.34 9.38 2.85 14.11 4.49 81.8 28.26 167.76 95.11 178.08 103.27a63.41 63.41 0 0 0 4.2 4.88z" opacity="1" data-original="#f9d129" class=""></path><path fill="#F9DB54" d="M105.02 280.11c66.36 3.015 204.54-25.825 179.91-99-21.357-11.508-44.03-22.122-66.395-29.848a285.595 285.595 0 0 0-14.114-4.496 11.011 11.011 0 0 1-1.754-.675 64.986 64.986 0 0 1-20.043-15.168 34.14 34.14 0 0 1-6.064 5.7L46.461 246.184a116.755 116.755 0 0 0-28.813 125.63s21.012-94.718 87.372-91.703z" opacity="1" data-original="#f9db54" class=""></path><path fill="#F05D00" d="M185.521 332.355a59.658 59.658 0 0 0-13.358 1.64l-46.99 15.329a79.4 79.4 0 0 0-50.305 49.217L70.37 411.37a114.085 114.085 0 0 0-5.492 34.463v23.112a11.627 11.627 0 0 0 11-6.292v-16.82a104.115 104.115 0 0 1 4.887-30.864l4.483-12.789a68.8 68.8 0 0 1 43.337-42.398l46.505-15.17a48.47 48.47 0 0 1 10.431-1.257c6.82 0 12.2 1.923 16.439 5.924l11.45-3.622c-5.777-7.65-14.548-13.302-27.889-13.302z" opacity="1" data-original="#f05d00" class=""></path><path fill="#F9EA76" d="M218.535 151.262a285.595 285.595 0 0 0-14.114-4.496 11.011 11.011 0 0 1-1.754-.675 64.986 64.986 0 0 1-20.043-15.167 34.14 34.14 0 0 1-6.064 5.7l-75.33 63.437c15.8 13.923 40.544 22.898 68.38 22.898 46.531 0 84.453-25.059 86.301-56.442a395.673 395.673 0 0 0-37.377-15.255z" opacity="1" data-original="#f9ea76"></path><path fill="#FF7000" d="M448.026 268.85a53.796 53.796 0 0 1-43.474-22.062l-.002.002s-2.018-1.63-5.723-4.491c-4.087 1.095-8.58 2.308-13.424 3.624a577.393 577.393 0 0 1 11.21 8.608 65.218 65.218 0 0 0 33.184 22.678l32.616-10.318a53.894 53.894 0 0 1-14.387 1.958z" opacity="1" data-original="#ff7000"></path><path fill="#F9A213" d="M486.06 176.82a53.698 53.698 0 0 0-38.03-15.73 53.862 53.862 0 0 0-43.5 85.69c-1.43-1.16-93.44-75.18-182.39-105.91q-7.35-2.55-14.66-4.67a53.891 53.891 0 0 1 37.67-100.48v-.01a.077.077 0 0 1 .03.01c2.19.36 140.26 23.62 240.88 141.1z" opacity="1" data-original="#f9a213" class=""></path><path fill="#FED987" d="M501.91 214.97a53.892 53.892 0 0 1-103.52 21 53.904 53.904 0 0 0 79.99-65.52 53.826 53.826 0 0 1 23.53 44.52z" opacity="1" data-original="#fed987" class=""></path><path fill="#FEE5AE" d="M482.62 191.44a53.892 53.892 0 0 1-84.23 44.53 53.892 53.892 0 0 1 79.99-65.52 53.712 53.712 0 0 1 4.24 20.99z" opacity="1" data-original="#fee5ae" class=""></path><ellipse cx="261.556" cy="235.328" fill="#FF6965" rx="34.608" ry="20.298" opacity="1" data-original="#ff6965" class=""></ellipse><path fill="#FF4A45" d="M261.555 255.626c-19.113 0-34.608-9.088-34.608-20.298v8.442c0 11.21 15.495 20.298 34.608 20.298s34.609-9.088 34.609-20.298v-8.442c0 11.21-15.495 20.298-34.609 20.298z" opacity="1" data-original="#ff4a45" class=""></path><ellipse cx="103.1" cy="204.415" fill="#FF6965" rx="34.608" ry="20.298" opacity="1" data-original="#ff6965" class=""></ellipse><path fill="#FF4A45" d="M103.1 224.712c-19.114 0-34.608-9.087-34.608-20.297v8.442c0 11.21 15.494 20.298 34.608 20.298s34.608-9.088 34.608-20.298v-8.443c0 11.21-15.495 20.298-34.608 20.298z" opacity="1" data-original="#ff4a45" class=""></path><ellipse cx="113.517" cy="285.622" fill="#FF6965" rx="34.608" ry="20.298" opacity="1" data-original="#ff6965" class=""></ellipse><path fill="#FF4A45" d="M113.517 305.92c-19.113 0-34.608-9.088-34.608-20.298v8.443c0 11.21 15.495 20.298 34.608 20.298s34.609-9.088 34.609-20.298v-8.443c0 11.21-15.495 20.298-34.609 20.298z" opacity="1" data-original="#ff4a45" class=""></path><g fill="#4AAB69"><path d="M232.451 297.756h-25.793a5 5 0 1 1 0-10h25.793a5 5 0 0 1 0 10zM57.425 259.38a5.003 5.003 0 0 1-4.795-3.589l-6.652-22.598a5 5 0 0 1 9.593-2.824l6.653 22.598a5.005 5.005 0 0 1-4.8 6.413zM192.414 196.436c-15.687 0-27.073-6.44-27.073-15.316s11.386-15.316 27.073-15.316 27.072 6.441 27.072 15.316-11.385 15.317-27.072 15.317zm0-20.632c-11.174 0-16.879 4.085-17.074 5.326.196 1.22 5.901 5.306 17.074 5.306 11.145 0 16.848-4.064 17.071-5.316-.222-1.252-5.925-5.316-17.07-5.316zM54.956 373.345c-4.633 0-8.403-1.582-10.62-4.806-1.576-2.295-3.542-7.3 1.01-15.04a42.917 42.917 0 0 1 12.633-12.915 42.909 42.909 0 0 1 16.586-7.159c8.853-1.474 12.824 2.158 14.4 4.453s3.542 7.3-1.009 15.04a42.917 42.917 0 0 1-12.633 12.915c-7.23 4.966-14.491 7.511-20.367 7.512zm23.607-30.255c-2.899 0-8.353 1.224-14.922 5.737-9.21 6.326-11.598 12.924-11.057 14.057.854.898 7.865 1.036 17.077-5.294 9.187-6.311 11.586-12.89 11.06-14.048a3.511 3.511 0 0 0-2.158-.452z" fill="#4AAB69" opacity="1" data-original="#4aab69" class=""></path></g><path fill="#B44031" d="M53.687 311.97c0 2.712-4.687 4.91-10.47 4.91s-10.47-2.198-10.47-4.91 4.688-8.604 10.47-8.604 10.47 5.893 10.47 8.604zM343.433 255.394c0 2.711-4.687 4.91-10.47 4.91s-10.47-2.199-10.47-4.91 4.688-8.604 10.47-8.604 10.47 5.892 10.47 8.604z" opacity="1" data-original="#b44031" class=""></path><path fill="#BD5B31" d="M180.81 248.637c0 2.712-4.687 4.91-10.47 4.91s-10.47-2.198-10.47-4.91 4.688-8.604 10.47-8.604 10.47 5.893 10.47 8.604z" opacity="1" data-original="#bd5b31" class=""></path><path fill="#FFA200" d="M256.49 154.67c-.04 4.91-.27 9.38-.43 11.92a395.614 395.614 0 0 0-37.53-15.33c-4.73-1.64-9.48-3.15-14.11-4.49a10.941 10.941 0 0 1-1.75-.68 64.93 64.93 0 0 1-20.05-15.17 42.013 42.013 0 0 0 6.23-9.66 54.03 54.03 0 0 0 18.63 14.94q7.305 2.115 14.66 4.67c11.46 3.96 22.98 8.64 34.35 13.8z" opacity="1" data-original="#ffa200" class=""></path><path fill="#FF9500" d="M284.94 181.12c-9.42-5.08-19.09-9.98-28.88-14.53.16-2.54.39-7.01.43-11.92 8.22 3.72 16.36 7.7 24.35 11.83z" opacity="1" data-original="#ff9500"></path><path fill="#FF8100" d="m412.596 255.567-11.81 3.85a63.455 63.455 0 0 1-4.2-4.88c-7.5-5.93-54.92-42.84-111.67-73.41l-4.1-14.62c67.33 34.74 123.71 80.29 123.71 80.29a54.42 54.42 0 0 0 8.06 8.76z" opacity="1" data-original="#ff8100" class=""></path><path fill="#F05D00" d="M245.605 322.47c-6.39 0-7.998 15.533-7.998 15.533l15.809-5s-1.42-10.533-7.811-10.533z" opacity="1" data-original="#f05d00" class=""></path><path fill="#FF9200" d="M40.339 432.227v.001z" opacity="1" data-original="#ff9200" class=""></path><path fill="#FDBB29" d="M335.107 65.186C284.534 42.35 246.326 35.909 245.18 35.72a.077.077 0 0 0-.03-.01v.01a53.89 53.89 0 0 0-37.67 100.48q7.305 2.115 14.66 4.67c11.333 3.915 22.716 8.535 33.955 13.615a67.413 67.413 0 0 1-1.521-14.17c0-40.312 35.694-73.214 80.533-75.13z" opacity="1" data-original="#fdbb29" class=""></path><path fill="#F05D00" d="M400.786 259.418 361.73 272.16l-68.86 22.47-.08.02-.03.01-3.5 1.14c-14.87 5.8-19.98 22.18-21.74 32.74l12.11-3.83c1.97-7.29 5.82-15.47 13.38-18.56l2.47-.81 19.24-6.27 29.45-9.61 20.97-6.84 39.08-12.75 6.26-2.04a65.59 65.59 0 0 1-9.694-8.412z" opacity="1" data-original="#f05d00" class=""></path><path fill="#FFFFFF" d="M229.642 59.111c.053-.026-3.011.843-3.664 1.089a30.827 30.827 0 0 0-3.81 1.756 25.253 25.253 0 0 0-6.47 4.986 22.84 22.84 0 0 0-2.421 3.2 23.249 23.249 0 0 0-1.763 3.653 26.063 26.063 0 0 0-1.45 8.404v.1a4.578 4.578 0 0 1-9.13.425 35.908 35.908 0 0 1 .619-11.775 31.36 31.36 0 0 1 5.052-11.165 37.313 37.313 0 0 1 8.622-8.566 43.828 43.828 0 0 1 5.104-3.162c.888-.467 1.788-.91 2.724-1.32.468-.206 2.668-1.056 3.132-1.192a7 7 0 1 1 3.455 13.567z" opacity="1" data-original="#ffffff" class=""></path><circle cx="207.474" cy="104.921" r="7.011" fill="#FFFFFF" opacity="1" data-original="#ffffff" class=""></circle><path fill="#FED987" d="M501.91 214.97a53.892 53.892 0 0 1-103.52 21 53.904 53.904 0 0 0 79.99-65.52 53.826 53.826 0 0 1 23.53 44.52z" opacity="1" data-original="#fed987" class=""></path><path fill="#FEE5AE" d="M482.62 191.44a53.892 53.892 0 0 1-84.23 44.53 53.892 53.892 0 0 1 79.99-65.52 53.712 53.712 0 0 1 4.24 20.99z" opacity="1" data-original="#fee5ae" class=""></path></g></svg>