<svg xmlns="http://www.w3.org/2000/svg" version="1.1" xmlns:xlink="http://www.w3.org/1999/xlink" width="512" height="512" x="0" y="0" viewBox="0 0 512 512" style="enable-background:new 0 0 512 512" xml:space="preserve"><defs><linearGradient id="b" x1="74.981" x2="437.019" y1="74.981" y2="437.019" gradientUnits="userSpaceOnUse"><stop offset="0" stop-color="#ffd237"></stop><stop offset="1" stop-color="#ffb037"></stop></linearGradient><linearGradient id="c" x1="109.745" x2="402.255" y1="109.745" y2="402.255" gradientUnits="userSpaceOnUse"><stop offset="0" stop-color="#ff6e37"></stop><stop offset="1" stop-color="#ff4b37"></stop></linearGradient><linearGradient id="d" x1="133.5" x2="378.5" y1="133.5" y2="378.5" gradientUnits="userSpaceOnUse"><stop offset="0" stop-color="#fff6d6"></stop><stop offset="1" stop-color="#ffe17a"></stop></linearGradient><linearGradient id="a"><stop offset="0" stop-color="#ff4b37"></stop><stop offset="1" stop-color="#d5011d"></stop></linearGradient><linearGradient id="a"><stop offset="0" stop-color="#ff4b37"></stop><stop offset="1" stop-color="#d5011d"></stop></linearGradient><linearGradient id="a"><stop offset="0" stop-color="#ff4b37"></stop><stop offset="1" stop-color="#d5011d"></stop></linearGradient><linearGradient id="a"><stop offset="0" stop-color="#ff4b37"></stop><stop offset="1" stop-color="#d5011d"></stop></linearGradient><linearGradient id="a"><stop offset="0" stop-color="#ff4b37"></stop><stop offset="1" stop-color="#d5011d"></stop></linearGradient></defs><g><linearGradient id="b" x1="74.981" x2="437.019" y1="74.981" y2="437.019" gradientUnits="userSpaceOnUse"><stop offset="0" stop-color="#ffd237"></stop><stop offset="1" stop-color="#ffb037"></stop></linearGradient><linearGradient id="c" x1="109.745" x2="402.255" y1="109.745" y2="402.255" gradientUnits="userSpaceOnUse"><stop offset="0" stop-color="#ff6e37"></stop><stop offset="1" stop-color="#ff4b37"></stop></linearGradient><linearGradient id="d" x1="133.5" x2="378.5" y1="133.5" y2="378.5" gradientUnits="userSpaceOnUse"><stop offset="0" stop-color="#fff6d6"></stop><stop offset="1" stop-color="#ffe17a"></stop></linearGradient><linearGradient id="a"><stop offset="0" stop-color="#ff4b37"></stop><stop offset="1" stop-color="#d5011d"></stop></linearGradient><linearGradient xlink:href="#a" id="e" x1="179.238" x2="219.012" y1="178.613" y2="218.387" gradientUnits="userSpaceOnUse"></linearGradient><linearGradient xlink:href="#a" id="f" x1="292.988" x2="332.762" y1="178.613" y2="218.387" gradientUnits="userSpaceOnUse"></linearGradient><linearGradient xlink:href="#a" id="g" x1="179.238" x2="219.012" y1="292.988" y2="332.762" gradientUnits="userSpaceOnUse"></linearGradient><linearGradient xlink:href="#a" id="h" x1="292.988" x2="332.762" y1="292.988" y2="332.762" gradientUnits="userSpaceOnUse"></linearGradient><linearGradient xlink:href="#a" id="i" x1="236.113" x2="275.887" y1="235.488" y2="275.262" gradientUnits="userSpaceOnUse"></linearGradient><path fill="url(&quot;#b&quot;)" d="M512 256c0 141.387-114.613 256-256 256S0 397.387 0 256 114.613 0 256 0s256 114.613 256 256zm0 0" opacity="1" data-original="url(#b)"></path><path fill="url(&quot;#c&quot;)" d="M369.125 96h-226.25C117.027 96 96 117.027 96 142.875v226.25C96 394.973 117.027 416 142.875 416h226.25C394.973 416 416 394.973 416 369.125v-226.25C416 117.027 394.973 96 369.125 96zm0 0" opacity="1" data-original="url(#c)"></path><path fill="url(&quot;#d&quot;)" d="M256 133.5H133.5v245h245v-245zm0 0" opacity="1" data-original="url(#d)"></path><g fill="#751F17"><path d="M322.25 246H341v18.75h-18.75zM171 246h18.75v18.75H171zM246.625 321.625h18.75v18.75h-18.75zM246.625 170.375h18.75v18.75h-18.75zm0 0" fill="#751F17" opacity="1" data-original="#751f17"></path></g><path fill="url(&quot;#a&quot;)" d="M227.25 198.5c0 15.531-12.594 28.125-28.125 28.125S171 214.031 171 198.5s12.594-28.125 28.125-28.125 28.125 12.594 28.125 28.125zm0 0" opacity="1" data-original="url(#a)"></path><path fill="url(&quot;#a&quot;)" d="M341 198.5c0 15.531-12.594 28.125-28.125 28.125S284.75 214.031 284.75 198.5s12.594-28.125 28.125-28.125S341 182.969 341 198.5zm0 0" opacity="1" data-original="url(#a)"></path><path fill="url(&quot;#a&quot;)" d="M227.25 312.875c0 15.531-12.594 28.125-28.125 28.125S171 328.406 171 312.875s12.594-28.125 28.125-28.125 28.125 12.594 28.125 28.125zm0 0" opacity="1" data-original="url(#a)"></path><path fill="url(&quot;#a&quot;)" d="M341 312.875C341 328.406 328.406 341 312.875 341s-28.125-12.594-28.125-28.125 12.594-28.125 28.125-28.125S341 297.344 341 312.875zm0 0" opacity="1" data-original="url(#a)"></path><path fill="url(&quot;#a&quot;)" d="M284.125 255.375c0 15.531-12.594 28.125-28.125 28.125s-28.125-12.594-28.125-28.125S240.469 227.25 256 227.25s28.125 12.594 28.125 28.125zm0 0" opacity="1" data-original="url(#a)"></path></g></svg>