<svg xmlns="http://www.w3.org/2000/svg" version="1.1" xmlns:xlink="http://www.w3.org/1999/xlink" width="512" height="512" x="0" y="0" viewBox="0 0 64 64" style="enable-background:new 0 0 512 512" xml:space="preserve" class=""><g><path fill="#F5071A" d="M51 13v6H13v-6h6.36a12.987 12.987 0 0 1 25.28 0z" opacity="1" data-original="#d1303d" class=""></path><path fill="#F5071A" d="M37 5c0 6.63-6.94 12-15.5 12a18.808 18.808 0 0 1-8.5-1.96V13h6.36a13 13 0 0 1 17.58-9.03A8.766 8.766 0 0 1 37 5z" opacity="1" data-original="#dd4558" class=""></path><g fill="#CCCCCC"><path d="M26 16c-1.683 0-3-1.757-3-4s1.317-4 3-4 3 1.757 3 4-1.317 4-3 4zm0-6c-.408 0-1 .779-1 2s.592 2 1 2 1-.779 1-2-.592-2-1-2z" fill="#CCCCCC" opacity="1" data-original="#cccccc" class=""></path><path d="M25 14h2v5h-2zM36 16h-2a1 1 0 0 1-.447-.105l-2-1A1 1 0 0 1 31 14V8h2v5.382l1.236.618h1.528L37 13.382V8h2v6a1 1 0 0 1-.553.895l-2 1A1 1 0 0 1 36 16z" fill="#CCCCCC" opacity="1" data-original="#cccccc" class=""></path><path d="M34 8h2v11h-2z" fill="#CCCCCC" opacity="1" data-original="#cccccc" class=""></path></g><path fill="#E2E2E2" d="M8 29h48v32H8z" opacity="1" data-original="#e2e2e2" class=""></path><path fill="#F2F3F4" d="M54 29v10.912A19.088 19.088 0 0 1 34.912 59H8V29z" opacity="1" data-original="#f2f3f4" class=""></path><path fill="#FFD400" d="M5 19h54v6H5z" opacity="1" data-original="#e5842c" class=""></path><path fill="#FFD400" d="M52.65 19a5.769 5.769 0 0 1-1.41 2.24A5.944 5.944 0 0 1 47 23H5v-4z" opacity="1" data-original="#f29344" class=""></path><path fill="#F5071A" d="M11 29v3a3 3 0 0 1-6 0v-3z" opacity="1" data-original="#d1303d" class=""></path><path fill="#F5071A" d="M11 31v1a3 3 0 0 1-6 0v-1a3 3 0 0 0 6 0z" opacity="1" data-original="#ba2a3b" class=""></path><path fill="#FFD400" d="M11 29h6v3a3 3 0 0 1-3 3 3 3 0 0 1-3-3v-3z" opacity="1" data-original="#f19332" class=""></path><path fill="#F5071A" d="M17 29h6v3a3 3 0 0 1-3 3 3 3 0 0 1-3-3v-3z" opacity="1" data-original="#d1303d" class=""></path><path fill="#FFD400" d="M23 29h6v3a3 3 0 0 1-3 3 3 3 0 0 1-3-3v-3z" opacity="1" data-original="#f19332" class=""></path><path fill="#F5071A" d="M29 29h6v3a3 3 0 0 1-3 3 3 3 0 0 1-3-3v-3z" opacity="1" data-original="#d1303d" class=""></path><path fill="#FFD400" d="M35 29h6v3a3 3 0 0 1-3 3 3 3 0 0 1-3-3v-3z" opacity="1" data-original="#f19332" class=""></path><path fill="#F5071A" d="M41 29h6v3a3 3 0 0 1-3 3 3 3 0 0 1-3-3v-3z" opacity="1" data-original="#d1303d" class=""></path><path fill="#FFD400" d="M47 29h6v3a3 3 0 0 1-3 3 3 3 0 0 1-3-3v-3z" opacity="1" data-original="#f19332" class=""></path><path fill="#F5071A" d="M53 29h6v3a3 3 0 0 1-3 3 3 3 0 0 1-3-3v-3z" opacity="1" data-original="#d1303d" class=""></path><path fill="#009D54" d="M59.5 54h-1.777a2 2 0 1 0-3.446 0H52.5a1.5 1.5 0 0 0 0 3h7a1.5 1.5 0 0 0 0-3z" opacity="1" data-original="#009d54" class=""></path><path fill="#F5071A" d="M51 57h10v4H51z" opacity="1" data-original="#a3384a" class=""></path><path fill="#33A4DB" d="M24 45v16H12V45a5.99 5.99 0 0 1 5-5.91 5.47 5.47 0 0 1 1-.09 6.009 6.009 0 0 1 6 6z" opacity="1" data-original="#33a4db" class=""></path><path fill="#39B5E5" d="M22 45v16H12V45a5.99 5.99 0 0 1 5-5.91 5.832 5.832 0 0 1 3.24 1.67A5.944 5.944 0 0 1 22 45z" opacity="1" data-original="#39b5e5" class=""></path><path fill="#CCCCCC" d="M17 39h2v7h-2z" opacity="1" data-original="#cccccc" class=""></path><path fill="#CCCCCC" d="M12 45h12v2H12z" opacity="1" data-original="#cccccc" class=""></path><path fill="#33A4DB" d="M28 39h24v16H28z" opacity="1" data-original="#33a4db" class=""></path><path fill="#39B5E5" d="M51 39v8.294A7.706 7.706 0 0 1 43.294 55H28V39z" opacity="1" data-original="#39b5e5" class=""></path><path fill="#E2E2E2" d="M5 25h54v4H5z" opacity="1" data-original="#e2e2e2" class=""></path><path fill="#CCCCCC" d="M39 50h2v5h-2zM31 48h2v7h-2zM47 48h2v7h-2zM39 39h2v4h-2z" opacity="1" data-original="#cccccc" class=""></path><path fill="#009D54" d="M13 55.5a1.5 1.5 0 0 1-1.5 1.5h-7a1.5 1.5 0 0 1 0-3h1.78a1.974 1.974 0 0 1 1.22-2.93A1.679 1.679 0 0 1 8 51a1.984 1.984 0 0 1 1.72 3h1.78a1.5 1.5 0 0 1 1.5 1.5z" opacity="1" data-original="#009d54" class=""></path><path fill="#0CAD5C" d="M12 55.5a1.5 1.5 0 0 1-1.5 1.5h-6a1.5 1.5 0 0 1 0-3h1.78a1.974 1.974 0 0 1 1.22-2.93A1.974 1.974 0 0 1 8.72 54h1.78a1.5 1.5 0 0 1 1.5 1.5zM60 55.5a1.5 1.5 0 0 1-1.5 1.5h-6a1.5 1.5 0 0 1 0-3h1.78a1.974 1.974 0 0 1 1.22-2.93A1.974 1.974 0 0 1 56.72 54h1.78a1.5 1.5 0 0 1 1.5 1.5z" opacity="1" data-original="#0cad5c" class=""></path><path fill="#F5071A" d="M3 57h10v4H3z" opacity="1" data-original="#a3384a" class=""></path><path fill="#F5071A" d="M9.005 59H3v-2h8v.005A2 2 0 0 1 9.005 59zM57.005 59H51v-2h8v.005A2 2 0 0 1 57.005 59z" opacity="1" data-original="#b54865" class=""></path><path fill="#FFD400" d="M35 49h10v2H35z" opacity="1" data-original="#8c6239" class=""></path><path fill="#FFD400" d="M40 42a2 2 0 0 1 2 2v1h-4v-1a2 2 0 0 1 2-2z" opacity="1" data-original="#f19332" class=""></path><path fill="#F5071A" d="M23 31v1a3 3 0 0 1-6 0v-1a3 3 0 0 0 6 0zM35 31v1a3 3 0 0 1-6 0v-1a3 3 0 0 0 6 0zM47 31v1a3 3 0 0 1-6 0v-1a3 3 0 0 0 6 0zM59 31v1a3 3 0 0 1-6 0v-1a3 3 0 0 0 6 0z" opacity="1" data-original="#ba2a3b" class=""></path><path fill="#FFD400" d="M17 31v1a3 3 0 0 1-6 0v-1a3 3 0 0 0 6 0zM29 31v1a3 3 0 0 1-6 0v-1a3 3 0 0 0 6 0zM41 31v1a3 3 0 0 1-6 0v-1a3 3 0 0 0 6 0zM53 31v1a3 3 0 0 1-6 0v-1a3 3 0 0 0 6 0z" opacity="1" data-original="#e28430" class=""></path><path fill="#FFD400" d="M41 19a2.015 2.015 0 0 1-2 2h-8a2.006 2.006 0 0 1-2-2zM49 19a2.015 2.015 0 0 1-2 2h-2a2.006 2.006 0 0 1-2-2z" opacity="1" data-original="#f9aa6e" class=""></path></g></svg>