<svg xmlns="http://www.w3.org/2000/svg" version="1.1" xmlns:xlink="http://www.w3.org/1999/xlink" width="512" height="512" x="0" y="0" viewBox="0 0 64 64" style="enable-background:new 0 0 512 512" xml:space="preserve" class=""><g transform="matrix(6.123233995736766e-17,-1,1,6.123233995736766e-17,0.00020966327428695308,63.99979796612024)"><path fill="#FCE3AC" d="m57.91 7.77-1.8 4.02h-.01l-.32.72-.46 1.01-2.78 6.2-6.28 13.98v.01l-1.35 2.99-2.5 5.57-.36.8-.88 1.97-.93 2.07-1.5 3.35-2.54 5.65-2.6 5.79-.67 1.5a1.021 1.021 0 0 1-1.86 0c-1.13-2.52-2.26-5.03-3.39-7.55q-1.74-3.885-3.48-7.75l-1.56-3.48v-.01l-.13-.27v-.01c-.24-.52-.47-1.05-.7-1.57h-.01c-.88-1.97-1.77-3.95-2.65-5.92-.8-1.77-1.6-3.55-2.4-5.32q-2.535-5.62-5.05-11.25c-.55-1.21-1.09-2.42-1.63-3.63-.34-.76-.69-1.53-1.03-2.29-.22-.48-.43-.97-.65-1.45-.16-.37-.33-.74-.5-1.11l-1.8-4.02a1.02 1.02 0 0 1 .44-1.32 53.513 53.513 0 0 1 50.94 0 1.02 1.02 0 0 1 .44 1.32z" opacity="1" data-original="#fce3ac"></path><path fill="#E08327" d="m57.91 7.77-1.8 4.02a53.505 53.505 0 0 0-48.22 0l-1.8-4.02a1.02 1.02 0 0 1 .44-1.32 53.513 53.513 0 0 1 50.94 0 1.02 1.02 0 0 1 .44 1.32z" opacity="1" data-original="#e08327"></path><path fill="#CE7421" d="m57.91 7.77-.71 1.59a31.635 31.635 0 0 0-9.1-3.96c-2.425-.622-3.131-.486-10.1-1.2-9.088-.932-9.142-1.291-11.6-1.05-2.343.23-5.077 1.14-10.45 2.95-3.87 1.3-7.022 2.465-9.15 3.27-.2-.42-.42-.954-.71-1.6a1.02 1.02 0 0 1 .44-1.32 53.513 53.513 0 0 1 50.94 0 1.02 1.02 0 0 1 .44 1.32z" opacity="1" data-original="#ce7421"></path><path fill="#ED1C24" d="m55.78 12.51-.46 1.01a5.837 5.837 0 0 0-3.12-1.82c-5.35-1.15-5.65-1.5-10.6-3.05a18.464 18.464 0 0 0-12.9.15c-4.75 1.55-8.7 1.25-14.15 2.15a7.8 7.8 0 0 0-5.51 3.4c-.22-.48-.43-.97-.65-1.45 2.02-1.59 4.9-3.36 7.96-3.6A67.838 67.838 0 0 0 31.1 6.9c4.15-1.27 19.02 1.32 24.68 5.61z" opacity="1" data-original="#ed1c24"></path><path fill="#FFD140" d="m55.32 13.52-2.78 6.2-6.28 13.98v.01l-1.35 2.99-2.5 5.57-.36.8-.88 1.97-.93 2.07-1.5 3.35h-.01l-2.53 5.65-2.6 5.79-.67 1.5a1.021 1.021 0 0 1-1.86 0c-1.13-2.52-2.26-5.03-3.39-7.55q-1.74-3.885-3.48-7.75l-1.56-3.48v-.01l-.13-.27v-.01h-.01c-.23-.52-.46-1.05-.7-1.57q-1.32-2.97-2.66-5.92-1.185-2.67-2.39-5.32-2.535-5.62-5.05-11.25c-.55-1.21-1.09-2.42-1.63-3.63-.34-.76-.69-1.53-1.03-2.29a7.8 7.8 0 0 1 5.51-3.4c5.45-.9 9.4-.6 14.15-2.15a18.464 18.464 0 0 1 12.9-.15c4.95 1.55 5.25 1.9 10.6 3.05a5.837 5.837 0 0 1 3.12 1.82z" opacity="1" data-original="#ffd140"></path><path fill="#FCBF12" d="M52.54 19.72 46.26 33.7v.01l-1.35 2.99c-.3.07-.61.14-.92.2-.33.06-.66.11-.99.14a9.508 9.508 0 0 1-1.99.06 4.87 4.87 0 0 1-.55-.06.359.359 0 0 1-.11-.02 2.024 2.024 0 0 1-.26-.04 5.292 5.292 0 0 1-.54-.13 19.514 19.514 0 0 0-1.98-.45c-.12-.02-.24-.04-.37-.06-.18-.03-.36-.06-.54-.08-4.05-.58-7.67-.39-7.06-3.46.51-2.6 4.93-2.91 8.6-4.42a10.7 10.7 0 0 0 2.66-1.52c.13-.1.24-.21.36-.32a5.883 5.883 0 0 0 1.13-1.39c1.19-2.02 3.91-3.45 6.7-4.42a34.2 34.2 0 0 1 3.49-1.01zM31.18 49.51c-.05.15-.11.3-.17.45a1.877 1.877 0 0 1-.12.3 20.567 20.567 0 0 1-1 2.07c-.05.09-.1.18-.16.28-.07.13-.15.27-.23.41-.59 1.01-1.23 1.98-1.82 2.83q-1.74-3.885-3.48-7.75l-1.56-3.48c-.05-.09-.09-.19-.13-.28v-.01h-.01c-.23-.52-.46-1.05-.7-1.57h.01a26.3 26.3 0 0 1 3.23-.03c.14 0 .29.01.43.02a9.28 9.28 0 0 1 4.88 1.45 3.339 3.339 0 0 1 1.05 1.25 5.582 5.582 0 0 1-.22 4.06zM25.4 19.4c.07 3.66-8.74 2.06-13.7.87-.55-1.21-1.09-2.42-1.63-3.63 1.38-1.48 3.82-2.97 8.03-2.89 8.2.15 9.2-3.2 12.9-2.8s-5.7 3.35-5.6 8.45z" opacity="1" data-original="#fcbf12"></path><circle cx="42.825" cy="23.425" r="6.775" fill="#D31C29" opacity="1" data-original="#d31c29" class=""></circle><g fill="#EF5669"><circle cx="40.15" cy="19.956" r=".5" fill="#EF5669" opacity="1" data-original="#ef5669" class=""></circle><circle cx="45.8" cy="27.356" r=".5" fill="#EF5669" opacity="1" data-original="#ef5669" class=""></circle><circle cx="46.675" cy="20.831" r=".625" fill="#EF5669" opacity="1" data-original="#ef5669" class=""></circle><circle cx="38.525" cy="24.181" r=".625" fill="#EF5669" opacity="1" data-original="#ef5669" class=""></circle><circle cx="41" cy="26.656" r=".25" fill="#EF5669" opacity="1" data-original="#ef5669" class=""></circle><circle cx="45.3" cy="23.656" r=".25" fill="#EF5669" opacity="1" data-original="#ef5669" class=""></circle><circle cx="44.15" cy="18.956" r=".25" fill="#EF5669" opacity="1" data-original="#ef5669" class=""></circle><circle cx="42.125" cy="22.881" r=".175" fill="#EF5669" opacity="1" data-original="#ef5669" class=""></circle><circle cx="48.075" cy="21.931" r=".175" fill="#EF5669" opacity="1" data-original="#ef5669" class=""></circle></g><circle cx="47.675" cy="25.331" r=".175" fill="#B71A2D" opacity="1" data-original="#b71a2d" class=""></circle><circle cx="43.175" cy="28.281" r=".175" fill="#B71A2D" opacity="1" data-original="#b71a2d" class=""></circle><circle cx="41.825" cy="18.481" r=".175" fill="#B71A2D" opacity="1" data-original="#b71a2d" class=""></circle><circle cx="39.2" cy="26.206" r=".25" fill="#B71A2D" opacity="1" data-original="#b71a2d" class=""></circle><circle cx="43.35" cy="21.456" r=".25" fill="#B71A2D" opacity="1" data-original="#b71a2d" class=""></circle><circle cx="43.85" cy="24.956" r=".25" fill="#B71A2D" opacity="1" data-original="#b71a2d" class=""></circle><path fill="#D31C29" d="M46.17 33.7h.09v.01l-1.35 2.99-2.5 5.57-.36.8-.88 1.97a6.461 6.461 0 0 1-1.13-1.7 5.361 5.361 0 0 1-.4-1.1v-.01a6.322 6.322 0 0 1-.24-1.75 6.822 6.822 0 0 1 .28-1.93 5.6 5.6 0 0 1 .3-.81l.01-.01a4.732 4.732 0 0 1 .36-.71 2.49 2.49 0 0 1 .19-.3v-.01a5.386 5.386 0 0 1 .51-.67 6.757 6.757 0 0 1 5.12-2.34z" opacity="1" data-original="#d31c29" class=""></path><circle cx="43.5" cy="37.006" r=".5" fill="#EF5669" opacity="1" data-original="#ef5669" class=""></circle><circle cx="41.875" cy="41.231" r=".625" fill="#EF5669" opacity="1" data-original="#ef5669" class=""></circle><circle cx="45.175" cy="35.531" r=".175" fill="#B71A2D" opacity="1" data-original="#b71a2d" class=""></circle><path fill="#D31C29" d="m22.64 44.62 1.56 3.48h.02a6.754 6.754 0 0 0 6.13-3.9 6.569 6.569 0 0 0 .65-2.87 6.773 6.773 0 0 0-11.85-4.49h-.01q1.335 2.955 2.66 5.92c.24.52.47 1.05.7 1.57z" opacity="1" data-original="#d31c29" class=""></path><circle cx="21.55" cy="37.856" r=".5" fill="#EF5669" opacity="1" data-original="#ef5669" class=""></circle><circle cx="27.2" cy="45.256" r=".5" fill="#EF5669" opacity="1" data-original="#ef5669" class=""></circle><circle cx="28.075" cy="38.731" r=".625" fill="#EF5669" opacity="1" data-original="#ef5669" class=""></circle><circle cx="26.7" cy="41.556" r=".25" fill="#EF5669" opacity="1" data-original="#ef5669" class=""></circle><circle cx="25.55" cy="36.856" r=".25" fill="#EF5669" opacity="1" data-original="#ef5669" class=""></circle><circle cx="23.525" cy="40.781" r=".175" fill="#EF5669" opacity="1" data-original="#ef5669" class=""></circle><circle cx="29.475" cy="39.831" r=".175" fill="#EF5669" opacity="1" data-original="#ef5669" class=""></circle><circle cx="29.075" cy="43.231" r=".175" fill="#B71A2D" opacity="1" data-original="#b71a2d" class=""></circle><circle cx="24.575" cy="46.181" r=".175" fill="#B71A2D" opacity="1" data-original="#b71a2d" class=""></circle><circle cx="23.225" cy="36.381" r=".175" fill="#B71A2D" opacity="1" data-original="#b71a2d" class=""></circle><circle cx="24.75" cy="39.356" r=".25" fill="#B71A2D" opacity="1" data-original="#b71a2d" class=""></circle><circle cx="25.25" cy="42.856" r=".25" fill="#B71A2D" opacity="1" data-original="#b71a2d" class=""></circle><path fill="#D31C29" d="M38.74 50.46 33.6 61.9a6.776 6.776 0 0 1 4.9-11.45 1.7 1.7 0 0 1 .23.01c.01-.01.01 0 .01 0z" opacity="1" data-original="#d31c29" class=""></path><circle cx="35.828" cy="53.756" r=".5" fill="#EF5669" opacity="1" data-original="#ef5669" class=""></circle><circle cx="34.203" cy="57.981" r=".625" fill="#EF5669" opacity="1" data-original="#ef5669" class=""></circle><circle cx="37.503" cy="52.281" r=".175" fill="#B71A2D" opacity="1" data-original="#b71a2d" class=""></circle><circle cx="21.175" cy="19.475" r="6.775" fill="#D31C29" opacity="1" data-original="#d31c29" class=""></circle><circle cx="18.5" cy="16.006" r=".5" fill="#EF5669" opacity="1" data-original="#ef5669" class=""></circle><circle cx="24.15" cy="23.406" r=".5" fill="#EF5669" opacity="1" data-original="#ef5669" class=""></circle><circle cx="25.025" cy="16.881" r=".625" fill="#EF5669" opacity="1" data-original="#ef5669" class=""></circle><circle cx="16.875" cy="20.231" r=".625" fill="#EF5669" opacity="1" data-original="#ef5669" class=""></circle><circle cx="19.35" cy="22.706" r=".25" fill="#EF5669" opacity="1" data-original="#ef5669" class=""></circle><circle cx="23.65" cy="19.706" r=".25" fill="#EF5669" opacity="1" data-original="#ef5669" class=""></circle><circle cx="22.5" cy="15.006" r=".25" fill="#EF5669" opacity="1" data-original="#ef5669" class=""></circle><circle cx="20.475" cy="18.931" r=".175" fill="#EF5669" opacity="1" data-original="#ef5669" class=""></circle><circle cx="26.425" cy="17.981" r=".175" fill="#EF5669" opacity="1" data-original="#ef5669" class=""></circle><circle cx="26.025" cy="21.381" r=".175" fill="#B71A2D" opacity="1" data-original="#b71a2d" class=""></circle><circle cx="21.525" cy="24.331" r=".175" fill="#B71A2D" opacity="1" data-original="#b71a2d" class=""></circle><circle cx="20.175" cy="14.531" r=".175" fill="#B71A2D" opacity="1" data-original="#b71a2d" class=""></circle><circle cx="17.55" cy="22.256" r=".25" fill="#B71A2D" opacity="1" data-original="#b71a2d" class=""></circle><circle cx="21.7" cy="17.506" r=".25" fill="#B71A2D" opacity="1" data-original="#b71a2d" class=""></circle><circle cx="22.2" cy="21.006" r=".25" fill="#B71A2D" opacity="1" data-original="#b71a2d" class=""></circle><path fill="#EFD4B9" d="M40.4 12.389a3.942 3.942 0 0 0-4.6-1.281 3.948 3.948 0 0 0-2.875 3.817.567.567 0 0 0 .708.525l2.366-.8.918 2.705a.439.439 0 0 0 .557.275l.956-.325a.439.439 0 0 0 .275-.557l-.918-2.705 2.366-.8a.568.568 0 0 0 .247-.854z" opacity="1" data-original="#efd4b9"></path><path fill="#C7B299" d="M40.394 12.385a.632.632 0 0 1 .012.667 4.345 4.345 0 0 0-7.07 2.4.616.616 0 0 1-.409-.532 3.952 3.952 0 0 1 2.882-3.813 3.919 3.919 0 0 1 4.585 1.278z" opacity="1" data-original="#c7b299"></path><path fill="#EFD4B9" d="m42.41 42.27-.36.8-.88 1.97-.93 2.07-.61-1.04-2.16 1.27a.422.422 0 0 1-.29.05.127.127 0 0 1-.06-.01.066.066 0 0 1-.06-.01h-.01a.611.611 0 0 1-.14-.07.035.035 0 0 0-.02-.01.864.864 0 0 1-.13-.14.757.757 0 0 1-.09-.18 3.941 3.941 0 0 1 2.04-4.32 4.976 4.976 0 0 1 .85-.39.689.689 0 0 0 .08-.03 4.041 4.041 0 0 1 2.77.04z" opacity="1" data-original="#efd4b9"></path><path fill="#C7B299" d="m42.41 42.27-.36.8a4.619 4.619 0 0 0-2.73.61 4.078 4.078 0 0 0-2.14 3.71v.01a.266.266 0 0 1-.12-.03h-.01a.611.611 0 0 1-.14-.07.035.035 0 0 0-.02-.01.864.864 0 0 1-.13-.14.757.757 0 0 1-.09-.18 3.941 3.941 0 0 1 2.04-4.32 4.976 4.976 0 0 1 .85-.39.309.309 0 0 1 .08-.02v-.01a4.041 4.041 0 0 1 2.77.04z" opacity="1" data-original="#c7b299"></path><path fill="#EFD4B9" d="M30.074 30.585a3.133 3.133 0 0 0-1.91-3.273 3.135 3.135 0 0 0-3.751.583.451.451 0 0 0 .112.692l1.794.852-.974 2.05a.349.349 0 0 0 .165.465l.724.344a.35.35 0 0 0 .465-.166l.974-2.049 1.794.852a.452.452 0 0 0 .607-.35z" opacity="1" data-original="#efd4b9"></path><path fill="#C7B299" d="M30.072 30.579a.5.5 0 0 1-.363.387 3.452 3.452 0 0 0-5.357-2.546.489.489 0 0 1 .061-.529 3.14 3.14 0 0 1 3.754-.578 3.115 3.115 0 0 1 1.905 3.266z" opacity="1" data-original="#c7b299"></path><path fill="#4C453E" d="M49.9 12.45a2.2 2.2 0 1 0 2.2 2.2 2.194 2.194 0 0 0-2.2-2.2zm0 3.5a1.3 1.3 0 1 1 1.3-1.3 1.3 1.3 0 0 1-1.3 1.3z" opacity="1" data-original="#4c453e"></path><path fill="#6B635C" d="M49.9 12.98a1.67 1.67 0 1 0 1.67 1.67 1.664 1.664 0 0 0-1.67-1.67zm0 2.97a1.3 1.3 0 1 1 1.3-1.3 1.3 1.3 0 0 1-1.3 1.3z" opacity="1" data-original="#6b635c"></path><path fill="#4C453E" d="M31.18 49.51a2.013 2.013 0 0 0-.78-.16 1.946 1.946 0 0 0-1.95 1.95 1.908 1.908 0 0 0 1.05 1.72 1.825 1.825 0 0 0 .9.23 1.952 1.952 0 0 0 .78-3.74zm-.78 2.94a1.1 1.1 0 0 1-.51-.12 1.129 1.129 0 0 1-.64-1.03 1.15 1.15 0 1 1 1.15 1.15z" opacity="1" data-original="#4c453e"></path><path fill="#6B635C" d="M31.01 49.96a1.4 1.4 0 0 0-.61-.14 1.481 1.481 0 0 0-1.47 1.48 1.459 1.459 0 0 0 .8 1.31 1.389 1.389 0 0 0 .67.17 1.475 1.475 0 0 0 .61-2.82zm-.61 2.49a1.1 1.1 0 0 1-.51-.12 1.129 1.129 0 0 1-.64-1.03 1.15 1.15 0 1 1 1.15 1.15z" opacity="1" data-original="#6b635c"></path><path fill="#4C453E" d="M41.05 36.04a2.221 2.221 0 0 0-4.39.22 1.477 1.477 0 0 0-.01.21 2.219 2.219 0 0 0 2.23 2.23 2.146 2.146 0 0 0 .8-.15 2.229 2.229 0 0 0 1.42-2.08 1.535 1.535 0 0 0-.05-.43zm-2.17 1.75a1.306 1.306 0 0 1-1.32-1.32.17.17 0 0 1 .01-.07 1.288 1.288 0 0 1 1.31-1.24 1.3 1.3 0 0 1 1.31 1.31 1.255 1.255 0 0 1-.1.51 1.292 1.292 0 0 1-1.21.81z" opacity="1" data-original="#4c453e"></path><path fill="#6B635C" d="M38.88 34.79a1.682 1.682 0 0 0-1.68 1.55.57.57 0 0 0-.01.13 1.694 1.694 0 0 0 1.69 1.69 1.671 1.671 0 0 0 1.1-.42l.01-.01a1.663 1.663 0 0 0 .55-1.01v-.01a1.791 1.791 0 0 0 .02-.24 1.69 1.69 0 0 0-1.68-1.68zm0 3a1.306 1.306 0 0 1-1.32-1.32.17.17 0 0 1 .01-.07 1.288 1.288 0 0 1 1.31-1.24 1.3 1.3 0 0 1 1.31 1.31 1.255 1.255 0 0 1-.1.51 1.292 1.292 0 0 1-1.21.81z" opacity="1" data-original="#6b635c"></path><path fill="#4C453E" d="M27.95 19.41a.97.97 0 0 0-.17-.01 2.269 2.269 0 1 0 .17.01zm-.17 3.53a1.323 1.323 0 0 1-1.32-1.32 1.3 1.3 0 0 1 1.32-1.31.41.41 0 0 1 .11.01 1.312 1.312 0 0 1-.11 2.62z" opacity="1" data-original="#4c453e"></path><path fill="#6B635C" d="M27.92 19.95a.66.66 0 0 0-.14-.01 1.705 1.705 0 0 0-1.65 1.31 1.428 1.428 0 0 0-.03.29v.01a.17.17 0 0 0-.01.07 1.664 1.664 0 0 0 .83 1.44 1.576 1.576 0 0 0 .86.25 1.683 1.683 0 0 0 .14-3.36zm-.14 2.99a1.323 1.323 0 0 1-1.32-1.32 1.3 1.3 0 0 1 1.32-1.31.41.41 0 0 1 .11.01 1.312 1.312 0 0 1-.11 2.62z" opacity="1" data-original="#6b635c"></path></g></svg>